<?xml version="1.0" encoding="UTF-8"?>
<!DOCTYPE svg PUBLIC "-//W3C//DTD SVG 1.1//EN" "http://www.w3.org/Graphics/SVG/1.1/DTD/svg11.dtd">
<!-- Creator: CorelDRAW (Evaluation Version) -->
<svg xmlns="http://www.w3.org/2000/svg" xml:space="preserve" width="250px" height="250px" version="1.1" shape-rendering="geometricPrecision" text-rendering="geometricPrecision" image-rendering="optimizeQuality" fill-rule="evenodd" clip-rule="evenodd"
viewBox="0 0 12.27 12.27"
 xmlns:xlink="http://www.w3.org/1999/xlink"
 xmlns:xodm="http://www.corel.com/coreldraw/odm/2003">
 <defs>
   <clipPath id="id0">
    <path d="M1.96 0l8.34 0c1.08,0 1.97,0.88 1.97,1.96l0 8.34c0,1.08 -0.89,1.97 -1.97,1.97l-8.34 0c-1.08,0 -1.96,-0.89 -1.96,-1.97l0 -8.34c0,-1.08 0.88,-1.96 1.96,-1.96z"/>
   </clipPath>
 </defs>
 <g id="Layer_x0020_1">
  <metadata id="CorelCorpID_0Corel-Layer"/>
  <path fill="#9C161B" d="M1.96 0l8.34 0c1.08,0 1.97,0.88 1.97,1.96l0 8.34c0,1.08 -0.89,1.97 -1.97,1.97l-8.34 0c-1.08,0 -1.96,-0.89 -1.96,-1.97l0 -8.34c0,-1.08 0.88,-1.96 1.96,-1.96z"/>
  <g clip-path="url(#id0)">
   <g id="_105553199279456">
    <rect fill="#CF1F25" width="12.27" height="11.89" rx="1.1" ry="1.9"/>
    <path fill="white" fill-rule="nonzero" d="M2.7 1.37l6.87 0c0.47,0 0.86,0.38 0.86,0.85l0 1.72c0,0.48 -0.39,0.86 -0.86,0.86l-6.87 0c-0.48,0 -0.86,-0.38 -0.86,-0.86l0 -1.72c0,-0.47 0.38,-0.85 0.86,-0.85z"/>
    <path fill="black" fill-rule="nonzero" d="M7.48 4.07l0 -0.31 -0.02 -0.06 0 -0.55c0,-0.1 -0.03,-0.18 -0.09,-0.24 -0.06,-0.06 -0.16,-0.09 -0.29,-0.09 -0.08,0 -0.16,0.02 -0.25,0.04 -0.08,0.03 -0.15,0.07 -0.21,0.11l-0.14 -0.26c0.08,-0.06 0.18,-0.11 0.29,-0.14 0.12,-0.03 0.23,-0.05 0.36,-0.05 0.22,0 0.39,0.06 0.51,0.16 0.12,0.11 0.18,0.27 0.18,0.49l0 0.9 -0.34 0zm-0.48 0.02c-0.11,0 -0.21,-0.02 -0.3,-0.06 -0.08,-0.04 -0.15,-0.09 -0.19,-0.16 -0.05,-0.07 -0.08,-0.15 -0.08,-0.24 0,-0.08 0.02,-0.16 0.07,-0.23 0.04,-0.07 0.1,-0.12 0.2,-0.16 0.09,-0.04 0.22,-0.06 0.37,-0.06l0.44 0 0 0.24 -0.41 0c-0.13,0 -0.21,0.02 -0.25,0.05 -0.04,0.04 -0.06,0.09 -0.06,0.15 0,0.06 0.02,0.12 0.07,0.15 0.06,0.04 0.13,0.06 0.22,0.06 0.09,0 0.16,-0.02 0.24,-0.06 0.06,-0.04 0.11,-0.1 0.14,-0.18l0.06 0.22c-0.03,0.09 -0.09,0.16 -0.18,0.21 -0.09,0.04 -0.2,0.07 -0.34,0.07z"/>
    <path id="_1" fill="black" fill-rule="nonzero" d="M8.74 4.1c-0.14,0 -0.27,-0.02 -0.41,-0.06 -0.13,-0.04 -0.25,-0.1 -0.34,-0.17l0.16 -0.29c0.07,0.06 0.16,0.1 0.27,0.14 0.1,0.04 0.21,0.06 0.32,0.06 0.13,0 0.24,-0.03 0.31,-0.09 0.07,-0.05 0.11,-0.12 0.11,-0.22 0,-0.09 -0.03,-0.16 -0.1,-0.22 -0.07,-0.05 -0.18,-0.08 -0.33,-0.08l-0.19 0 0 -0.25 0.58 -0.68 0.05 0.14 -1.08 0 0 -0.31 1.36 0 0 0.25 -0.57 0.68 -0.19 -0.12 0.11 0c0.24,0 0.43,0.06 0.55,0.17 0.13,0.11 0.19,0.25 0.19,0.42 0,0.11 -0.03,0.22 -0.09,0.31 -0.06,0.1 -0.14,0.17 -0.26,0.23 -0.12,0.06 -0.27,0.09 -0.45,0.09z"/>
    <path fill="white" fill-rule="nonzero" fill-opacity="0.349020" d="M2.41 5.66l1.15 0c0.31,0 0.57,0.26 0.57,0.57l0 0.86c0,0.32 -0.26,0.57 -0.57,0.57l-1.15 0c-0.31,0 -0.57,-0.25 -0.57,-0.57l0 -0.86c0,-0.31 0.26,-0.57 0.57,-0.57z"/>
    <path fill="white" fill-rule="nonzero" fill-opacity="0.349020" d="M5.56 5.66l1.15 0c0.31,0 0.57,0.26 0.57,0.57l0 0.86c0,0.32 -0.26,0.57 -0.57,0.57l-1.15 0c-0.31,0 -0.57,-0.25 -0.57,-0.57l0 -0.86c0,-0.31 0.26,-0.57 0.57,-0.57z"/>
    <path fill="white" fill-rule="nonzero" fill-opacity="0.349020" d="M2.41 8.52l1.15 0c0.31,0 0.57,0.26 0.57,0.57l0 0.86c0,0.32 -0.26,0.58 -0.57,0.58l-1.15 0c-0.31,0 -0.57,-0.26 -0.57,-0.58l0 -0.86c0,-0.31 0.26,-0.57 0.57,-0.57z"/>
    <path fill="white" fill-rule="nonzero" fill-opacity="0.349020" d="M5.56 8.52l1.15 0c0.31,0 0.57,0.26 0.57,0.57l0 0.86c0,0.32 -0.26,0.58 -0.57,0.58l-1.15 0c-0.31,0 -0.57,-0.26 -0.57,-0.58l0 -0.86c0,-0.31 0.26,-0.57 0.57,-0.57z"/>
    <path fill="white" fill-rule="nonzero" d="M8.71 5.66l1.15 0c0.31,0 0.57,0.26 0.57,0.57l0 3.72c0,0.32 -0.26,0.58 -0.57,0.58l-1.15 0c-0.32,0 -0.57,-0.26 -0.57,-0.58l0 -3.72c0,-0.31 0.25,-0.57 0.57,-0.57z"/>
    <g>
     <path fill="black" fill-rule="nonzero" d="M9.28 7.39l0 1.41 0 -1.41zm-0.7 0.7l1.41 0 -1.41 0zm0 0l0 0 0 0z"/>
     <path id="_1_0" fill="none" fill-rule="nonzero" stroke="#CF1F25" stroke-width="0.46" stroke-linecap="round" stroke-miterlimit="22.9256" d="M9.28 7.39l0 1.41m-0.7 -0.71l1.41 0m-1.41 0l0 0 0 0z"/>
    </g>
   </g>
  </g>
  <path fill="none" d="M1.96 0l8.34 0c1.08,0 1.97,0.88 1.97,1.96l0 8.34c0,1.08 -0.89,1.97 -1.97,1.97l-8.34 0c-1.08,0 -1.96,-0.89 -1.96,-1.97l0 -8.34c0,-1.08 0.88,-1.96 1.96,-1.96z"/>
 </g>
</svg>
